<?xml version="1.0" encoding="utf-8"?>
<!-- Generator: Adobe Illustrator 16.0.4, SVG Export Plug-In . SVG Version: 6.00 Build 0)  -->
<!DOCTYPE svg PUBLIC "-//W3C//DTD SVG 1.1//EN" "http://www.w3.org/Graphics/SVG/1.1/DTD/svg11.dtd">
<svg version="1.1" id="Layer_1" xmlns="http://www.w3.org/2000/svg" xmlns:xlink="http://www.w3.org/1999/xlink" x="0px" y="0px"
	 viewBox="0 0 176.445 80.775" enable-background="new 0 0 176.445 80.775"
	 xml:space="preserve">
<g>
	<path fill="#020202" d="M3.632,74.446v-1.361c0-0.98-0.79-1.77-1.77-1.77s-1.77,0.789-1.77,1.77v5.921c0,0.98,0.79,1.77,1.77,1.77
		s1.77-0.789,1.77-1.77v-1.252H2.924v1.252c0,0.585-0.477,1.062-1.062,1.062c-0.585,0-1.062-0.477-1.062-1.062v-5.921
		c0-0.586,0.477-1.062,1.062-1.062c0.585,0,1.062,0.476,1.062,1.062v1.443L3.632,74.446z"/>
	<path fill="#020202" d="M15.311,71.452h-1.198l-1.402,9.188h0.708l0.354-2.355h1.865l0.368,2.355h0.708L15.311,71.452z
		 M14.699,72.241h0.027l0.803,5.336h-1.647L14.699,72.241z"/>
	<path fill="#020202" d="M26.718,75.929v-3.771h0.857c0.667,0,1.198,0.531,1.198,1.198v1.374c0,0.668-0.531,1.198-1.198,1.198
		H26.718z M27.575,76.637c1.048,0,1.906-0.857,1.906-1.906v-1.374c0-1.048-0.857-1.905-1.906-1.905H26.01v9.188h0.708v-4.002H27.575
		z"/>
	<path fill="#020202" d="M41.772,71.452h-3.267v0.707h1.279v8.48h0.722v-8.48h1.266V71.452z"/>
	<path fill="#020202" d="M53.955,71.452v7.554c0,0.585-0.477,1.062-1.062,1.062c-0.585,0-1.062-0.477-1.062-1.062v-7.554h-0.708
		v7.554c0,0.98,0.79,1.77,1.77,1.77s1.77-0.789,1.77-1.77v-7.554H53.955z"/>
	<path fill="#020202" d="M67.907,77.59c0-0.641-0.327-1.198-0.803-1.553c0.477-0.34,0.803-0.911,0.803-1.551v-1.13
		c0-1.048-0.858-1.905-1.906-1.905h-1.565v9.188h0.708v-4.247h0.857c0.667,0,1.198,0.531,1.198,1.198v3.049h0.708V77.59z
		 M65.144,75.684v-3.525h0.857c0.667,0,1.198,0.531,1.198,1.198v1.13c0,0.666-0.531,1.197-1.198,1.197H65.144z"/>
	<path fill="#020202" d="M80.498,72.159v-0.707h-2.94v9.188h3.049v-0.708h-2.341v-3.525h1.647v-0.722h-1.647v-3.525H80.498z"/>
	<path fill="#020202" d="M102.931,71.452h-3.268v0.707h1.279v8.48h0.723v-8.48h1.266V71.452z"/>
	<path fill="#020202" d="M115.14,71.452v4.232h-2.123v-4.232h-0.707v9.188h0.707v-4.247h2.123v4.247h0.707v-9.188H115.14z"/>
	<path fill="#020202" d="M128.589,72.159v-0.707h-2.941v9.188h3.049v-0.708h-2.34v-3.525h1.646v-0.722h-1.646v-3.525H128.589z"/>
	<path fill="#020202" d="M151.021,71.452h-3.268v0.707h1.281v8.48h0.721v-8.48h1.266V71.452z"/>
	<path fill="#020202" d="M162.183,71.452h-1.197l-1.402,9.188h0.707l0.354-2.355h1.865l0.367,2.355h0.709L162.183,71.452z
		 M161.57,72.241h0.027l0.803,5.336h-1.646L161.57,72.241z"/>
	<path fill="#020202" d="M174.583,76.637h1.061v2.368c0,0.585-0.475,1.062-1.061,1.062s-1.062-0.477-1.062-1.062v-5.921
		c0-0.586,0.477-1.062,1.062-1.062s1.061,0.476,1.061,1.062v1.171l0.709-0.082v-1.089c0-0.98-0.789-1.77-1.77-1.77
		s-1.77,0.789-1.77,1.77v5.921c0,0.98,0.789,1.77,1.77,1.77c0.449,0,0.857-0.163,1.17-0.436v0.312l0.6,0.123v-4.846h-1.77V76.637z"
		/>
</g>
<g>
	<path fill="#020202" d="M20.307,57.708c0,2.223-0.775,4.128-2.325,5.714c-1.551,1.588-3.432,2.443-5.646,2.571H8.16
		c-2.277,0-4.207-0.81-5.788-2.43C0.79,61.946,0,59.994,0,57.708V33.044v-0.096V8.284c0-2.285,0.79-4.237,2.372-5.856
		C3.953,0.809,5.883,0,8.16,0h4.176c2.214,0.128,4.095,0.985,5.646,2.571c1.55,1.587,2.325,3.492,2.325,5.713v9.809
		c0,1.08-0.189,1.89-0.569,2.429c-0.38,0.54-0.792,0.938-1.233,1.19c-0.317,0.128-0.981,0.429-1.993,0.905
		c-1.013,0.476-1.961,0.904-2.847,1.285V9.332c0-0.953-0.349-1.729-1.044-2.333c-0.696-0.603-1.518-0.904-2.467-0.904
		c-1.013,0-1.851,0.302-2.515,0.904C6.975,7.603,6.643,8.379,6.643,9.332v23.617v0.096v23.616c0,0.952,0.332,1.777,0.996,2.476
		c0.664,0.699,1.502,1.048,2.515,1.048c0.949,0,1.771-0.349,2.467-1.048c0.695-0.698,1.044-1.523,1.044-2.476v-8.762
		c0-1.077,0.19-1.887,0.569-2.428c0.38-0.538,0.79-0.936,1.233-1.19c0.316-0.126,0.997-0.429,2.041-0.904
		c1.043-0.476,1.976-0.905,2.799-1.285V57.708z"/>
	<path fill="#020202" d="M54.049,65.517h-7.307l-5.788-44.948l-5.883,44.948h-7.307L37.633,0.38h3.512
		c1.454,0,2.387,0.366,2.799,1.095c0.411,0.73,0.68,1.54,0.807,2.428L54.049,65.517z"/>
	<path fill="#020202" d="M77.856,0.999c1.012,0.414,1.913,1,2.705,1.762c0.79,0.762,1.424,1.635,1.897,2.619
		c0.475,0.985,0.712,2.047,0.712,3.19v16.855c0,3.175-0.792,5.778-2.373,7.81c-1.582,2.032-3.984,3.047-7.211,3.047h-3.891v29.235
		h-4.744c-0.823,0-1.345-0.175-1.565-0.524c-0.223-0.348-0.332-0.65-0.332-0.904V0.38h11.576C75.77,0.38,76.845,0.587,77.856,0.999z
		 M76.719,9.903c-0.128-0.889-0.522-1.65-1.187-2.286c-0.664-0.634-1.439-0.952-2.325-0.952h-3.511v22.95h3.511
		c0.886,0,1.661-0.301,2.325-0.905c0.664-0.602,1.059-1.349,1.187-2.238V9.903z"/>
	<path fill="#020202" d="M118.183,0.38c-0.381,0.838-0.807,1.789-1.281,2.851c-0.475,1.062-0.775,1.723-0.9,1.979
		c-0.191,0.452-0.555,0.87-1.092,1.257c-0.539,0.387-1.346,0.579-2.42,0.579h-5.219c-0.508,0-0.902,0.159-1.186,0.476
		c-0.285,0.317-0.428,0.696-0.428,1.14v56.855h-5.125c-0.758,0-1.25-0.175-1.471-0.522c-0.223-0.349-0.363-0.65-0.426-0.903V7.046
		h-9.299V2.408c0-0.579,0.189-1.061,0.568-1.448c0.379-0.387,0.854-0.58,1.424-0.58H118.183z"/>
	<path fill="#020202" d="M145.373,65.517h-7.307l-5.789-44.948l-5.883,44.948h-7.307l9.869-65.137h3.51
		c1.455,0,2.387,0.366,2.799,1.095c0.412,0.73,0.68,1.54,0.807,2.428L145.373,65.517z"/>
	<path fill="#020202" d="M176.445,57.708c0,2.223-0.775,4.128-2.324,5.714c-1.551,1.588-3.432,2.443-5.646,2.571H164.3
		c-2.277,0-4.209-0.81-5.789-2.43c-1.582-1.618-2.373-3.57-2.373-5.855V8.284c0-2.285,0.791-4.237,2.373-5.856
		C160.091,0.809,162.023,0,164.3,0h4.174c2.215,0.128,4.096,0.985,5.646,2.571c1.549,1.587,2.324,3.492,2.324,5.713v4.19
		c0,1.081-0.189,1.89-0.568,2.429c-0.379,0.54-0.791,0.938-1.234,1.19c-0.316,0.128-0.996,0.428-2.039,0.904
		c-1.045,0.477-1.979,0.905-2.799,1.286V9.332c0-0.953-0.35-1.777-1.045-2.476c-0.697-0.698-1.518-1.047-2.467-1.047
		c-1.012,0-1.85,0.35-2.514,1.047c-0.664,0.699-0.998,1.523-0.998,2.476v47.329c0,0.952,0.334,1.777,0.998,2.476
		c0.664,0.699,1.502,1.048,2.514,1.048c0.949,0,1.77-0.349,2.467-1.048c0.695-0.698,1.045-1.523,1.045-2.476V37.329h-0.285
		c-0.318,0-0.602-0.095-0.854-0.285c-0.254-0.126-0.508-0.334-0.76-0.619c-0.254-0.285-0.508-0.682-0.76-1.19l-2.277-4.571h8.352
		c0.949,0,1.723,0.271,2.324,0.81c0.6,0.54,0.9,1.445,0.9,2.713V57.708z"/>
</g>
</svg>
